<?xml version="1.0" standalone="no"?><!DOCTYPE svg PUBLIC "-//W3C//DTD SVG 1.1//EN" "http://www.w3.org/Graphics/SVG/1.1/DTD/svg11.dtd"><svg class="icon" width="60px" height="60.00px" viewBox="0 0 1024 1024" version="1.1" xmlns="http://www.w3.org/2000/svg"><path d="M533.762653 414.274258c-29.341259 0-53.211922 23.870664-53.211922 53.211922 0 29.341259 23.870664 53.211922 53.211922 53.211922s53.211922-23.870664 53.211922-53.211922C586.974575 438.144922 563.103912 414.274258 533.762653 414.274258z" fill="#a1a1a1" /><path d="M253.661234 538.77583 323.985906 538.77583 288.824081 448.065875Z" fill="#a1a1a1" /><path d="M960.697255 338.967108l-895.672286 0c-6.78145 0-12.279674 5.498224-12.279674 12.279674l0 325.411371c0 6.78145 5.498224 12.279674 12.279674 12.279674l895.672286 0c6.78145 0 12.279674-5.498224 12.279674-12.279674l0-325.411371C972.97693 344.465333 967.479729 338.967108 960.697255 338.967108zM379.560642 631.179356l-5.724375 2.219551c-6.323009 2.450818-13.437034-0.687662-15.887852-7.011694l-22.061458-56.912198-93.396133 0c-0.242524 0-0.477884-0.021489-0.717338-0.032746l-21.677719 55.921637c-2.450818 6.323009-9.56382 9.462512-15.887852 7.011694l-5.724375-2.219551c-6.323009-2.450818-9.462512-9.564843-7.011694-15.887852l83.587744-215.633129c2.451842-6.323009 9.564843-9.462512 15.887852-7.011694l0.524956 0.203638c4.563946-0.021489 8.896624 2.509147 11.024078 6.742565 0.88516 1.353834 1.494027 2.870374 1.794879 4.462638l82.279958 212.258265C389.023154 621.615537 385.883651 628.728538 379.560642 631.179356zM533.762653 551.397289c-22.649859 0-43.217291-9.035794-58.328453-23.673166l0 93.204775c0 6.78145-5.498224 12.279674-12.279674 12.279674l-6.139837 0c-6.78145 0-12.279674-5.498224-12.279674-12.279674L444.735014 403.070078c0-6.78145 5.498224-12.279674 12.279674-12.279674l6.139837 0c6.78145 0 12.279674 5.498224 12.279674 12.279674l0 4.177136c15.111163-14.637372 35.678594-23.673166 58.328453-23.673166 46.26879 0 83.911108 37.642319 83.911108 83.911108C617.673761 513.75497 580.031443 551.397289 533.762653 551.397289zM751.172241 551.397289c-22.649859 0-43.216267-9.035794-58.328453-23.672142l0 93.203752c0 6.78145-5.498224 12.279674-12.279674 12.279674l-6.139837 0c-6.78145 0-12.279674-5.498224-12.279674-12.279674L662.144602 403.070078c0-6.78145 5.498224-12.279674 12.279674-12.279674l6.139837 0c6.78145 0 12.279674 5.498224 12.279674 12.279674l0 4.176113c15.111163-14.636349 35.678594-23.672142 58.328453-23.672142 46.26879 0 83.911108 37.642319 83.911108 83.911108C835.083349 513.75497 797.441031 551.397289 751.172241 551.397289z" fill="#a1a1a1" /><path d="M751.172241 414.274258c-29.341259 0-53.211922 23.870664-53.211922 53.211922 0 29.341259 23.870664 53.211922 53.211922 53.211922s53.211922-23.870664 53.211922-53.211922C804.384164 438.144922 780.5135 414.274258 751.172241 414.274258z" fill="#a1a1a1" /><path d="M265.609357 370.178971 265.609357 84.010369l499.373425 0 0 286.168602 30.699186 0L795.681968 80.94045c0-15.234983-12.394285-27.629267-27.629267-27.629267l-505.513262 0c-15.234983 0-27.629267 12.394285-27.629267 27.629267l0 289.23852L265.609357 370.178971z" fill="#a1a1a1" /><path d="M764.982782 663.295821l0 280.598746-499.373425 0L265.609357 663.295821l-30.699186 0 0 5.203512 0 278.464129c0 15.234983 12.394285 27.629267 27.629267 27.629267l505.513262 0c15.234983 0 27.629267-12.394285 27.629267-27.629267L795.681968 663.295821 764.982782 663.295821z" fill="#a1a1a1" /></svg>