<?xml version="1.0" standalone="no"?><!DOCTYPE svg PUBLIC "-//W3C//DTD SVG 1.1//EN" "http://www.w3.org/Graphics/SVG/1.1/DTD/svg11.dtd"><svg class="icon" width="60px" height="60.00px" viewBox="0 0 1024 1024" version="1.1" xmlns="http://www.w3.org/2000/svg"><path d="M919.565463 121.942283 104.433514 121.942283c-22.036899 0-40.066531 18.029632-40.066531 40.066531L64.366983 682.937161c0 22.036899 18.029632 40.066531 40.066531 40.066531l345.360725 0-10.544147 107.886149L250.5248 830.889841l-10.544147 71.167876 544.03767 0-11.598152-71.167876L584.748884 830.889841l-10.544147-107.886149 345.360725 0c22.036899 0 40.066531-18.029632 40.066531-40.066531L959.631994 162.008814C959.633017 139.971915 941.602362 121.942283 919.565463 121.942283zM935.467641 659.734716 88.531336 659.734716 88.531336 178.113607l846.936305 0L935.467641 659.734716z" fill="#a1a1a1" /></svg>